PathFileType	4	(X/Y/Z)	53_2_68_p1_0-335_filt_butterworth.trc
DataRate	CameraRate	NumFrames	NumMarkers	Units	OrigDataRate	OrigDataStartFrame	OrigNumFrames
60.0	60.0	6	27	m	60.0	167	335
Frame#	Time	RHip			RKnee			RAnkle			RBigToe			RSmallToe			RHeel			LHip			LKnee			LAnkle			LBigToe			LSmallToe			LHeel			Neck			Head			Nose			RShoulder			RElbow			RWrist			RThumb			RIndex			RPinky			LShoulder			LElbow			LWrist			LThumb			LIndex			LPinky			
		X1	Y1	Z1	X2	Y2	Z2	X3	Y3	Z3	X4	Y4	Z4	X5	Y5	Z5	X6	Y6	Z6	X7	Y7	Z7	X8	Y8	Z8	X9	Y9	Z9	X10	Y10	Z10	X11	Y11	Z11	X12	Y12	Z12	X13	Y13	Z13	X14	Y14	Z14	X15	Y15	Z15	X16	Y16	Z16	X17	Y17	Z17	X18	Y18	Z18	X19	Y19	Z19	X20	Y20	Z20	X21	Y21	Z21	X22	Y22	Z22	X23	Y23	Z23	X24	Y24	Z24	X25	Y25	Z25	X26	Y26	Z26	X27	Y27	Z27	
167	2.783333333333333	0.34092936497749327	0.5976489531768718	0.6804241723077787	0.360476395257571	0.7132473948023149	1.1090401673482493	0.3638518788098645	0.8683801831961946	1.5249447642928873	0.32110642739293604	0.7389205023211373	1.5768537209849918	0.371255018286639	0.7160998189924024	1.5647216862190254	0.34225286457949555	0.9480624910765969	1.5930026059010982	0.15242980886669344	0.6238682562917377	0.6652685093675418	0.1596531321829321	0.7424779490148921	1.1277974364373087	0.1564176750801349	0.8629445400884548	1.548295290201069	0.1750656232311342	0.7295535514092982	1.5725581294721866	0.12757033042361146	0.7218372523399266	1.5570439925463087	0.17193088206623885	0.907848432954178	1.594475091553071	0.31950012597092314	0.5071902549237015	0.18981322384778704	0.3696415074677779	0.3627334014979558	-0.03646829538366388	0.327719861234093	0.31741674109031304	0.09704461131087841	0.4410753684240005	0.5235276092088239	0.2849129010845242	0.452055624921243	0.5722713081828501	0.553931092890009	0.4323707475801868	0.5862965160982463	0.8089500385060666	0.3797933602959525	0.5091619609148306	0.8984646238558556	0.38388558131298794	0.5125188371580234	0.9147696078217367	0.41561726864855014	0.5730734356988387	0.9190826839988895	0.1611013207814501	0.5834151384671078	0.213159789570006	0.11059524119279779	0.5810646180395063	0.47121717972294674	0.05417020767006857	0.579657761357542	0.7369854885599575	0.08464667561203328	0.5742259293281765	0.8362344761386036	0.05770703819973871	0.5192397354558661	0.8398052301395562	0.025642251984463203	0.5981555830238311	0.8456683433346703
168	2.8	0.3410633206176566	0.5979868764140315	0.6799891509833411	0.35869478553400513	0.7096321176114582	1.1082749658968223	0.35968066150722844	0.8641605937929968	1.524461397283888	0.32016779638460025	0.7372838537866313	1.5762869047647339	0.3698357935405105	0.7101332413672385	1.562273755189456	0.3391653695902066	0.9477721287264653	1.5950017021618095	0.15086429672574053	0.6282830928701292	0.6644200620365666	0.15919743593983626	0.7437336861086764	1.12922342737149	0.15640168406461274	0.8630942341971818	1.5483289232601214	0.1753178012876751	0.7283461267938441	1.5697134495654201	0.1286359185650903	0.7186856168972444	1.554851725083508	0.17064300190616313	0.9140655471125095	1.5969064865018172	0.31952111289603646	0.507283499037257	0.1887377802534963	0.3681093165702536	0.36349448598035355	-0.03682563177559528	0.3271407347578945	0.3205617803982105	0.09616050156254986	0.4411806584203523	0.5240625254529345	0.2838960790221541	0.4522905948915179	0.5724986622989519	0.5537194588880565	0.4288175769100193	0.5847950708373546	0.8074287067251947	0.37833146902340137	0.5090743019219611	0.8976645670683759	0.3826122690257176	0.5120321031573954	0.9137273825000245	0.4139414007636458	0.5712075914673456	0.9180750008202352	0.16068156356242716	0.5845207726535444	0.21307959644213378	0.10887434440199152	0.5862927073045459	0.4715475083919657	0.0530614773687633	0.5790908197616137	0.7378548046082646	0.08514689057673777	0.5779657774264297	0.8367210137151359	0.056334651235848715	0.5190421933808577	0.8408919249999461	0.0257116090291541	0.5975558235428872	0.8467284704811712
169	2.816666666666667	0.34191580027140944	0.5948247467005688	0.6795672643335586	0.35821780915116425	0.7087272261140005	1.10775637664279	0.3550496749377815	0.8569361102947566	1.5236343045479708	0.31848119449175794	0.7358420642980945	1.575626255618541	0.36865322357449426	0.7083301052938464	1.5620295765398597	0.3357692244129626	0.9448200245373284	1.5965442286988996	0.14992756909582403	0.632838475262756	0.663446111479371	0.15792849522292612	0.7472648401144496	1.130351880430814	0.15636740565934046	0.863228931001796	1.5484922406739006	0.1754209892891361	0.7263828281216318	1.5686833124603823	0.12904033747327265	0.7171309722003496	1.554412675727896	0.17016743689111885	0.9170387602072109	1.5982691346130864	0.31965354689792524	0.5073350191028395	0.18751063184013153	0.3659716147454136	0.36672249919669064	-0.03658175762366398	0.3263425430258704	0.32466986364792216	0.09400903858401201	0.44124589235830547	0.5246123778715845	0.2832056204001628	0.4524953271469087	0.5725745092785051	0.5529558320147943	0.42591600378692285	0.5848281647267302	0.8061320974878129	0.3758255497671536	0.5087491715465183	0.8963106268126723	0.3804203207393926	0.5117155574189465	0.9125519832037604	0.4129693722555102	0.5693380659535691	0.9162184543263387	0.16062479303663232	0.5845171387068488	0.21310006414630428	0.1075964328979288	0.5900109651819081	0.4716792105884212	0.05270634758385626	0.5784074564978592	0.7392369330646058	0.08555053131835555	0.5822577452820816	0.8373660392752809	0.0554660778723544	0.5189984117637841	0.8426808248260471	0.02599191938801092	0.5966131084388865	0.8476922815796102
170	2.833333333333333	0.3430110052429483	0.5908157445680066	0.6788283355939069	0.3579475244666916	0.7089011051729717	1.1078113266985166	0.35066010952126825	0.8487936135605493	1.5228512694910499	0.3163051436648848	0.7330542424245424	1.574430735005454	0.36788159412298194	0.70874912305407	1.563391836341522	0.33295484617819515	0.9385940457910769	1.5973183627101388	0.15010613461598898	0.6371448810447563	0.6623877078462238	0.15625942757272343	0.7523295811615297	1.13092275641925	0.15633401552414034	0.8633500878353888	1.5486408037642585	0.17493568642368212	0.7228268310092769	1.5688268673514831	0.12830726242250517	0.7171208992965501	1.5549653452066117	0.1702113099796467	0.9176077729316018	1.5985808852953203	0.31974321270055683	0.5073652402492721	0.18627822898581037	0.3632406416853676	0.37213506649236017	-0.03611156173086464	0.32542271178123316	0.32750228800472875	0.09108598339767954	0.44096588531837344	0.5249323548051069	0.2829706223808347	0.4526627498050909	0.5724224838586404	0.5514107156850794	0.42474003807028593	0.5853454708952229	0.8053569979621616	0.37244042599053795	0.5083114660062197	0.8947040557318741	0.3773417952707047	0.511589109034848	0.9112343780477948	0.4114780012424007	0.5645300152109272	0.9134026395468341	0.1606605914237402	0.584275190284589	0.2130608909791208	0.10751685684257548	0.590073749776745	0.47161721366491033	0.05273548092303326	0.578223201946056	0.7404767860230055	0.08510248030774549	0.5841006033617603	0.8378762143585434	0.055167017135970296	0.5190680893719747	0.8444726668540594	0.026292503311292542	0.5962791782248722	0.8482821958982676
171	2.85	0.34376439968410666	0.5883035625156178	0.6780733837793365	0.35699160924069767	0.7086709839876599	1.109418990202704	0.3474605033794818	0.8426690415175403	1.5229295624678774	0.31462033657205457	0.726896253361544	1.571971151410693	0.3676423520970296	0.709722182694179	1.5652310353120094	0.33216748602018453	0.9324224619928192	1.5975423716109256	0.15096094548544858	0.641053887884523	0.6615706315666988	0.1549969714286875	0.7565402987353609	1.131459452476339	0.1563630971529618	0.8634127265721714	1.5487316881618176	0.1735907506591637	0.718280587936295	1.5687404711936583	0.12605400525930038	0.7185966553017658	1.5554561016325414	0.1704205732676068	0.917497645949942	1.5982812278489522	0.3192569712579224	0.5073885244397693	0.18518684591299805	0.36005453055301173	0.3780451754699119	-0.03609615000079142	0.3241375102446334	0.32792815121765395	0.0884046772031825	0.4399835666051378	0.5245789048627484	0.2825372462950444	0.452924968903363	0.5720288720319092	0.5494303210548387	0.4247397748628189	0.5857997995945071	0.8050389324712409	0.3685547756394768	0.5080484165693294	0.8935378390180335	0.3741254092203384	0.5116454916168375	0.9098521675118871	0.4095152013605388	0.5581433733429101	0.9105811788055335	0.1607050332785534	0.5843270606485114	0.21305904240265514	0.10863060489475962	0.5865449773588984	0.4716739465323182	0.05347100662736641	0.5795846996063505	0.7412080494646507	0.08318327453644603	0.5819671751369068	0.8378528354626044	0.05555409667853024	0.5190770084633508	0.8455115127742399	0.026550660083139725	0.5967115705375112	0.8485091652347851
172	2.8666666666666667	0.3439613386265534	0.5875616641007071	0.6775901716751697	0.3554343319941593	0.7076335645882332	1.1129803889727934	0.34596602016930833	0.8400981536918402	1.5240766692400918	0.3142342601183524	0.7173506820920269	1.5682285505837206	0.3677480017397195	0.7104140637169977	1.566420959612414	0.3334276404436747	0.9303804278750835	1.5974928606796697	0.1518333580562146	0.6437465617900275	0.6618984139601554	0.15440018053593502	0.7584727875049565	1.1326197405713232	0.15647367246101995	0.8633196371602168	1.5487351293368237	0.17180019894440418	0.7146660319706297	1.567934889849186	0.12259195740303117	0.7219211826634128	1.5556963595373294	0.17061315368290117	0.9175495110908545	1.5976439013795312	0.31743179746810685	0.507400473103377	0.18451966555490384	0.3568140811772908	0.3829059255107478	-0.03708908047426805	0.3222557746172834	0.3268094509426765	0.08644143580031417	0.43823389184103373	0.5227094399950857	0.28094991645672746	0.4536321925634859	0.5714142364594261	0.5473647250324395	0.42493543573791714	0.5858331359491596	0.8046687044810465	0.36483611061376514	0.5080259705794651	0.8930010337454104	0.37156659496383304	0.5116375700984779	0.9078523855116224	0.407994476479119	0.553404902386255	0.9085695573085943	0.16074737522144417	0.5847789959112397	0.21348889844050217	0.11022290983735777	0.5816484664495101	0.47227387910504687	0.05534405070142406	0.5836809345795888	0.7416189873686491	0.08058509102406222	0.5778923384442277	0.8374017803257149	0.056624313020046224	0.5189171687117624	0.8456804319298139	0.026673995795935587	0.597455000765492	0.8484822764512521
